<?xml version="1.0" standalone="no"?>
<!DOCTYPE svg PUBLIC "-//W3C//DTD SVG 20010904//EN"
 "http://www.w3.org/TR/2001/REC-SVG-20010904/DTD/svg10.dtd">
<svg version="1.0" xmlns="http://www.w3.org/2000/svg"
 width="560.000000pt" height="560.000000pt" viewBox="0 0 560.000000 560.000000"
 preserveAspectRatio="xMidYMid meet">
<metadata>
Created by potrace 1.11, written by Peter Selinger 2001-2013
</metadata>
<g transform="translate(0.000000,560.000000) scale(0.100000,-0.100000)"
fill="#000000" stroke="none">
<path d="M2435 5380 c-127 -29 -217 -70 -312 -141 -129 -96 -241 -256 -248
-354 -1 -22 -3 -43 -4 -46 0 -3 -24 -20 -52 -38 -161 -105 -262 -388 -258
-723 2 -163 28 -298 83 -429 5 -12 -1 -20 -23 -29 -45 -18 -99 -73 -121 -122
-17 -38 -20 -66 -20 -239 0 -190 1 -196 26 -247 16 -33 42 -64 69 -83 l43 -31
6 -86 c4 -48 11 -118 16 -157 5 -38 12 -90 15 -115 15 -110 51 -231 96 -321
59 -119 148 -204 291 -280 l72 -37 -39 -7 c-52 -10 -159 -52 -210 -83 -97 -59
-158 -140 -177 -235 l-14 -67 -88 -45 c-353 -182 -610 -486 -725 -860 -46
-152 -61 -256 -61 -441 l0 -164 2001 0 2002 0 -6 193 c-8 272 -47 429 -159
647 -137 268 -360 491 -624 625 l-92 46 -7 47 c-15 100 -79 190 -180 254 -45
28 -162 74 -213 84 l-34 7 69 36 c281 148 372 340 419 881 4 52 11 79 22 88
48 35 93 90 108 127 23 62 17 425 -8 471 -26 47 -77 95 -125 116 l-43 19 20
27 c28 37 77 183 94 278 22 123 15 385 -13 493 -37 139 -94 249 -178 342 l-33
37 35 52 c47 71 60 119 60 230 -1 84 -4 101 -29 150 -78 154 -190 186 -384
108 -204 -83 -305 -84 -577 -9 -193 54 -351 64 -490 31z"/>
</g>
</svg>
